<?xml version="1.0" encoding="utf-8"?>
<!-- Generator: Adobe Illustrator 25.0.0, SVG Export Plug-In . SVG Version: 6.00 Build 0)  -->
<svg version="1.1" id="Layer_1" xmlns="http://www.w3.org/2000/svg" xmlns:xlink="http://www.w3.org/1999/xlink" x="0px" y="0px"
	 viewBox="0 0 700 700" style="enable-background:new 0 0 700 700;" xml:space="preserve">
<g>
	<path d="M349.7,22.1C246.9,21.4,152.3,90,124.4,193.6c-6.4,23.6-7.8,46.7-7.7,68.4c0.4,78.5,42.2,145.2,88.5,209.2
		c46.3,63.9,97.5,126.2,124.6,193.2c2.2,5.5,6.5,9.8,11.9,12c5.3,2.2,11.5,2.2,16.8,0c5.3-2.2,9.6-6.5,11.9-12
		c27-67,78.3-129.3,124.6-193.2S583,340.6,583.4,262c0.1-21.8-1.4-44.8-7.7-68.4C547.8,89.8,453.2,21.4,350.4,22.1L349.7,22.1
		L349.7,22.1z M349.7,65.9h0.5c83.3-0.7,160.2,54.6,183,139.2c5,18.4,6.5,37.4,6.4,56.8c-0.3,62.7-35.3,121.6-80.3,183.9
		c-36.5,50.4-78.2,102.4-109.2,160.8c-31-58.3-72.7-110.4-109.2-160.8c-45-62.2-80-121.1-80.3-183.9c-0.1-19.4,1.4-38.4,6.4-56.8
		C189.5,120.3,266.4,65.1,349.7,65.9L349.7,65.9z M349.3,143.2c-60.7-0.1-109.1,49.5-109.1,110.1c0.1,60.6,48.6,110.3,109.2,110.4
		c60.7,0.1,110.5-49.5,110.4-110.1C459.9,192.9,409.9,143.2,349.3,143.2z M349.3,186.9c37,0,66.6,29.7,66.6,66.6
		s-29.3,66.2-66.3,66.2S283,290.3,283,253.4C282.9,216.4,312.3,186.8,349.3,186.9L349.3,186.9z"/>
</g>
</svg>
