<?xml version="1.0" encoding="utf-8"?>
<!-- Generator: Adobe Illustrator 25.0.0, SVG Export Plug-In . SVG Version: 6.00 Build 0)  -->
<svg version="1.1" id="Layer_1" xmlns="http://www.w3.org/2000/svg" xmlns:xlink="http://www.w3.org/1999/xlink" x="0px" y="0px"
	 viewBox="0 0 700 700" style="enable-background:new 0 0 700 700;" xml:space="preserve">
<g>
	<path d="M584.9,76.3h-32.6V25.6c0-4-3.3-7.5-7.5-7.5c-4,0-7.5,3.3-7.5,7.5v50.7h-115V25.6c0-4-3.3-7.5-7.5-7.5
		c-4,0-7.5,3.3-7.5,7.5v50.7H292.6V25.6c0-4-3.3-7.5-7.5-7.5c-4,0-7.5,3.3-7.5,7.5v50.7h-115V25.6c0-4-3.3-7.5-7.5-7.5
		c-4,0-7.5,3.3-7.5,7.5v50.7h-32.6c-37.5,0-68,30.5-68,68V614c0,37.5,30.5,68,68,68h469.7c37.5,0,68-30.5,68-68V144.3
		C652.9,106.7,622.4,76.3,584.9,76.3L584.9,76.3z M544.8,165.6c4,0,7.5-3.3,7.5-7.5v-27.8c12.4,3.3,21.5,14.5,21.5,27.8
		c0,16-13,29-29,29s-29-13-29-29c0-13.5,9.3-24.7,21.5-27.8v27.8C537.3,162.4,540.6,165.6,544.8,165.6L544.8,165.6z M414.9,165.6
		c4,0,7.5-3.3,7.5-7.5v-27.8c12.4,3.3,21.5,14.5,21.5,27.8c0,16-13,29-29,29c-16,0-29-13-29-29c0-13.5,9.3-24.7,21.5-27.8v27.8
		C407.4,162.4,410.8,165.6,414.9,165.6L414.9,165.6z M285.1,165.6c4,0,7.5-3.3,7.5-7.5v-27.8c12.4,3.3,21.5,14.5,21.5,27.8
		c0,16-13,29-29,29c-16,0-29-13-29-29c0-13.5,9.3-24.7,21.5-27.8v27.8C277.6,162.4,281.1,165.6,285.1,165.6L285.1,165.6z
		 M155.2,165.6c4,0,7.5-3.3,7.5-7.5v-27.8c12.4,3.3,21.5,14.5,21.5,27.8c0,16-13,29-29,29s-29-13-29-29c0-13.5,9.3-24.7,21.5-27.8
		v27.8C147.9,162.4,151.2,165.6,155.2,165.6L155.2,165.6z M638.1,613.8c0,29.5-23.9,53.2-53.2,53.2H115.1
		c-29.5,0-53.2-23.9-53.2-53.2V240.2h576L638.1,613.8L638.1,613.8z M637.9,144.3v81.2H62.1v-81.2h-0.1c0-29.3,23.9-53.2,53.2-53.2
		v0.1h32.6v24.1c-20.6,3.6-36.5,21.5-36.5,43.1c0,24.2,19.7,43.8,43.8,43.8s44-19.6,44-43.8c0-21.5-15.8-39.5-36.5-43.1V91.2h115
		v24.1c-20.6,3.6-36.5,21.5-36.5,43.1c0,24.2,19.7,43.8,43.8,43.8s43.8-19.7,43.8-43.8c0-21.5-15.7-39.5-36.5-43.1V91.2h115v24.1
		c-20.6,3.6-36.5,21.5-36.5,43.1c0,24.2,19.7,43.8,43.8,43.8s43.8-19.7,43.8-43.8c0-21.5-15.8-39.5-36.5-43.1V91.2h115v24.1
		c-20.6,3.6-36.5,21.5-36.5,43.1c0,24.2,19.7,43.8,43.8,43.8c24.1,0,43.8-19.7,43.8-43.8c0-21.5-15.8-39.5-36.5-43.1V91.2H584v-0.1
		C614.2,91.1,637.9,115,637.9,144.3L637.9,144.3z"/>
	<path d="M208.4,616.2h283.4c22.6,0,40.8-18.4,40.8-40.8c0-3.3-2.7-6-6-6h-29.5V429.8c0-21.4-15.4-39.2-35.7-43.1v-45
		c0-3.3-2.7-6-6-6H452V331c6.6-2.4,11.4-8.7,11.4-16.1c0-7.3-8.7-20.6-12.3-26.2c-2.2-3.3-7.6-3.3-9.9,0
		c-3.7,5.4-12.3,18.8-12.3,26.2s4.6,13.6,11.2,16.1v4.8h-3.6c-3.3,0-6,2.7-6,6v44.1H415v-44.1c0-3.3-2.7-6-6-6h-3.6V331
		c6.6-2.4,11.4-8.7,11.4-16.1c0-7.3-8.7-20.6-12.3-26.2c-1-1.6-3-2.5-4.9-2.5s-3.9,1-4.9,2.5c-3.7,5.4-12.3,18.8-12.3,26.2
		s4.6,13.6,11.2,16.1v4.8h-3.6c-3.3,0-6,2.7-6,6v44.1h-15.5v-44.1c0-3.3-2.7-6-6-6H359V331c6.6-2.4,11.4-8.7,11.4-16.1
		c0-7.3-8.7-20.6-12.3-26.2c-2.2-3.3-7.6-3.3-9.9,0c-3.7,5.4-12.3,18.8-12.3,26.2s4.6,13.6,11.2,16.1v4.8h-3.6c-3.3,0-6,2.7-6,6
		v44.1H322v-44.1c0-3.3-2.7-6-6-6h-3.4V331c6.6-2.4,11.4-8.7,11.4-16.1c0-7.3-8.7-20.6-12.3-26.2c-1-1.6-3-2.5-4.9-2.5
		c-1.9,0-3.9,1-4.9,2.5c-3.7,5.4-12.3,18.8-12.3,26.2s4.6,13.6,11.2,16.1v4.8h-3.6c-3.3,0-6,2.7-6,6v44.1h-15.5v-44.1
		c0-3.3-2.7-6-6-6h-3.4V331c6.6-2.4,11.4-8.7,11.4-16.1c0-7.3-8.7-20.6-12.3-26.2c-2.2-3.3-7.6-3.3-9.9,0
		c-3.7,5.4-12.3,18.8-12.3,26.2s4.6,13.6,11.2,16.1v4.8h-3.6c-3.3,0-6,2.7-6,6v45c-20.3,3.9-35.7,21.7-35.7,43.1v139.8h-35.6
		c-3.3,0-6,2.7-6,6C167.5,598,185.9,616.2,208.4,616.2L208.4,616.2z M446,303.3c3,5.2,5.2,9.9,5.2,11.5c0,3-2.4,5.2-5.2,5.2
		s-5.2-2.4-5.2-5.2C440.7,313.2,443,308.7,446,303.3L446,303.3z M449.6,347.7v38.1h-7.2v-38.1H449.6z M399.6,303.3
		c3,5.2,5.2,9.9,5.2,11.5c0,3-2.4,5.2-5.2,5.2s-5.2-2.4-5.2-5.2C394.3,313.2,396.5,308.7,399.6,303.3z M403.1,347.7v38.1h-7.2v-38.1
		H403.1z M353,303.3c3,5.2,5.2,9.9,5.2,11.5c0,3-2.4,5.2-5.2,5.2s-5.2-2.4-5.2-5.2C347.8,313.2,350,308.7,353,303.3z M356.6,347.7
		v38.1h-7.2v-38.1H356.6z M306.5,303.3c3,5.2,5.2,9.9,5.2,11.5c0,3-2.4,5.2-5.2,5.2s-5.2-2.4-5.2-5.2
		C301.4,313.2,303.5,308.7,306.5,303.3z M310.1,347.7v38.1h-7.2v-38.1H310.1z M260.2,303.3c3,5.2,5.2,9.9,5.2,11.5
		c0,3-2.4,5.2-5.2,5.2s-5.2-2.4-5.2-5.2C254.9,313.2,257,308.7,260.2,303.3z M263.6,347.7v38.1h-7.2v-38.1H263.6z M220.8,429.8
		c0-17.6,14.4-31.8,31.8-31.8h200.5c17.6,0,31.8,14.4,31.8,31.8v28.3c-4.3,6.4-12.3,10.6-21.1,10.6c-10.9,0-20.3-5.8-23.3-14.7
		c-4.6-13.8-15.5-23.5-28-25.4c-5.5-0.9-11.2-0.4-16.3,1.2c-14.9,4.5-25.6,18.8-25.9,34.7c0,12.6,3.4,23.9,6.4,33.9
		c3.1,10.2,5.7,19.1,2.7,23.2c-1.9,2.7-8.4,6-26.9,6s-24.8-3.3-26.9-6c-3.1-4-0.4-13,2.7-23.2c2.7-9,5.7-19,6.3-30
		c1.9-7.6,0.7-15.5-3.3-22.4c-4.6-7.9-12.7-13.6-22.4-16c-16.9-4.3-34.5,2.8-42.3,16.9c-0.3,0.6-0.4,1.2-0.6,1.8
		c-2.2,11.7-12.7,20.3-24.2,20.3h-0.1c-8.7-0.1-16.6-4.8-21.1-12.4L220.8,429.8L220.8,429.8z M386.2,486.6c-1.9-7-3.6-14.5-3.6-22.1
		c0.1-10.8,7.3-20.3,17.5-23.5c3.3-1,7-1.3,10.8-0.7c8.2,1.2,15.2,8.1,18.5,17.6c4.8,13.6,18.7,22.6,34.7,22.6
		c7.8,0,14.9-2.4,21.1-6.3v12.4L386.2,486.6z M485.1,498.6v5.7h-93.9c-0.4-1.8-1-3.7-1.6-5.7H485.1z M220.8,473.9
		c6,4.3,13.3,6.9,21.1,6.9c17.9,0,32.4-12.1,36-29c5.2-8.8,17-13.2,28.4-10.3c6.6,1.6,12,5.2,14.9,10.5c2.5,4.3,3.1,9,1.8,13.8
		c-0.1,0.4-0.1,0.9-0.1,1.3c-0.3,6.7-1.8,13.3-3.4,19.4h-98.7L220.8,473.9z M220.8,498.6h95.2c-0.6,1.9-1,3.9-1.6,5.7h-93.6V498.6z
		 M220.8,516.2h91.8c0,4.5,0.9,8.7,3.7,12.4c5.5,7.5,16.9,10.8,36.5,10.8c19.7,0,30.9-3.3,36.5-10.8c2.7-3.7,3.7-7.9,3.7-12.4h92.1
		v53.2H221L220.8,516.2z M214.9,581.4H520c-2.7,13-14.4,22.9-28.3,22.9H208.3c-13.9,0-25.4-9.9-28.3-22.9H214.9z"/>
</g>
</svg>
