<?xml version="1.0" encoding="utf-8"?>
<!-- Generator: Adobe Illustrator 25.0.0, SVG Export Plug-In . SVG Version: 6.00 Build 0)  -->
<svg version="1.1" id="Layer_1" xmlns="http://www.w3.org/2000/svg" xmlns:xlink="http://www.w3.org/1999/xlink" x="0px" y="0px"
	 viewBox="0 0 700 700" style="enable-background:new 0 0 700 700;" xml:space="preserve">
<g>
	<path d="M603.9,313.3l-30.3-65.2c-1.9-4.2-5.4-7.4-9.8-8.9c-4.3-1.6-9.1-1.4-13.2,0.6l-65.2,30.4c-4.2,1.9-7.4,5.4-8.9,9.7
		c-1.6,4.3-1.4,9.1,0.6,13.2c1.9,4.2,5.4,7.4,9.7,8.9l23.1,8.4l-22.2,60.9c-1.8,0.4-3.5,1-5.2,1.6c-4.9-10.4-14-18.3-25-21.7
		l-76.3-22.8v0c-5.2-1.5-8.7-6.3-8.7-11.6v-8c25.7-9.9,45-31.7,51.7-58.4c10.2,1.1,20.2-3,26.6-11.1c6.4-8,8.2-18.8,4.8-28.4
		c-3.4-9.7-11.6-16.9-21.6-19.2l0.1-0.3c4.4-27-3.3-54.6-21.1-75.5c-17.7-20.9-43.8-32.9-71.1-32.9c-27.4,0-53.4,12-71.1,32.9
		s-25.4,48.4-21.1,75.5l0.1,0.5c-9.5,2.3-17.3,9.2-20.8,18.4s-2.2,19.5,3.3,27.6c5.6,8.1,14.8,12.9,24.6,12.9c0.9,0,1.8-0.2,2.7-0.3
		c6.7,26.7,26,48.5,51.7,58.4v8c0,5.4-3.5,10.1-8.7,11.6l-76.3,22.8l0,0c-8.3,2.5-15.7,7.6-20.9,14.6c-5.2,7-8,15.5-7.9,24.2v89.6
		c0,0.1,0,0.1,0,0.2h0c-1.4,4.2-2.2,8.7-2.2,13.1c0,0.6,0.2,1.2,0.2,1.8l-41.4,37.7c-5-2-10.3-3-15.7-3
		c-11.3-0.1-22.2,4.3-30.4,12.1c-8.2,7.8-13,18.4-13.6,29.7c-0.5,11.3,3.4,22.3,10.8,30.8c7.4,8.5,17.9,13.8,29.2,14.7
		c11.3,1,22.4-2.5,31.2-9.6c8.8-7.1,14.5-17.3,15.9-28.5l48.3-43h0c8.2,1.8,16.7,1.2,24.5-1.8c7.8-3,14.6-8.1,19.6-14.9h72.4h0
		c6.9,9.3,17.1,15.4,28.5,17.2c11.4,1.7,23-1.2,32.3-8c9.3-6.9,15.4-17.1,17.2-28.5l67.7-43.1c2.3,0.4,4.6,0.7,6.9,0.7
		c11.6,0,22.7-4.6,30.9-12.8c8.2-8.2,12.8-19.3,12.8-30.9c0-7.9-2.2-15.7-6.4-22.4l22.8-62.6l23.1,8.4c4.3,1.6,9.1,1.4,13.2-0.6
		c4.2-1.9,7.4-5.4,8.9-9.7C606,322.2,605.8,317.4,603.9,313.3L603.9,313.3z M439.8,220.9c0,6.8-5.6,12.4-12.4,12.4l-0.1,0l3.9-24.1
		v0C436.3,210.9,439.7,215.6,439.8,220.9L439.8,220.9z M284.1,127.3c13.8-16.2,33.8-25.9,55.1-26.7c21.3-0.8,41.9,7.4,56.8,22.6
		c14.9,15.2,22.8,35.9,21.7,57.2c-2.1-1.8-4.1-3.6-6.1-5.6c-6.3-6.3-11.9-13.3-16.6-20.9c-2.3-3.8-7-5.3-11-3.5
		c-13.3,5.6-27.7,8.5-42.1,8.3c-14.5,0.2-28.8-2.6-42.1-8.3c-4-1.8-8.8-0.3-11,3.5c-4.7,7.6-10.2,14.6-16.6,20.9c-2,2-4,3.8-6.1,5.6
		C265.1,161.1,271.5,142.1,284.1,127.3L284.1,127.3z M244.6,220.9c0.1-5.1,3.3-9.7,8.1-11.5l3.9,23.8
		C249.9,233,244.6,227.6,244.6,220.9L244.6,220.9z M275.4,240.4l-6.5-39.9c11.9-8.6,22.3-19.2,30.7-31.3c27.4,9.2,57.1,9.2,84.5,0
		c8.4,12.1,18.8,22.6,30.7,31.2l-6.5,39.9c-3.4,21.2-16.8,39.6-36,49.3c-19.2,9.8-41.9,9.8-61.1,0
		C292.2,280,278.8,261.7,275.4,240.4L275.4,240.4z M328.8,316.9v-3.4c8.7,1.4,17.6,1.4,26.2,0v3.4c0,6.3,2,12.4,5.7,17.5
		c3.7,5.1,8.9,8.8,14.9,10.7c-21.7,8.5-45.7,8.5-67.4,0c6-1.9,11.2-5.6,14.9-10.7C326.9,329.3,328.8,323.2,328.8,316.9L328.8,316.9z
		 M231.4,368.1l54.3-16.2c10.6,9.7,33.7,17.1,56.2,17.1c22.6,0,45.6-7.3,56.2-17.1l54.3,16.2l0,0c7.2,2.3,12.8,7.9,15.1,15.1
		c-7.9,8.1-12.2,18.9-12.3,30.2c0,1.4,0.3,2.7,0.4,4.1l-57.8,34.9c-8.9-3.7-18.7-4.3-28-1.8c-9.3,2.5-17.4,8.1-23.2,15.8h-72.9
		c-6.6-8.9-16.4-14.9-27.3-16.7c-10.9-1.9-22.1,0.5-31.4,6.6V390c0-4.9,1.6-9.7,4.6-13.7C222.6,372.4,226.7,369.5,231.4,368.1
		L231.4,368.1z M138.5,599.4c-7,0-13.6-2.8-18.6-7.7c-4.9-4.9-7.7-11.6-7.7-18.6s2.8-13.6,7.7-18.6c4.9-4.9,11.6-7.7,18.6-7.7
		c7,0,13.6,2.8,18.6,7.7c4.9,4.9,7.7,11.6,7.7,18.6c0,7-2.8,13.6-7.7,18.6C152.1,596.6,145.4,599.4,138.5,599.4L138.5,599.4z
		 M179.2,557.4c-2.2-5.7-5.5-10.9-9.8-15.2l31.4-28.6l0,0c2.9,5.4,7,10.2,11.9,14L179.2,557.4z M239.1,519.2c-7,0-13.6-2.8-18.6-7.7
		c-4.9-4.9-7.7-11.6-7.7-18.6c0-7,2.8-13.6,7.7-18.6c4.9-4.9,11.6-7.7,18.6-7.7c7,0,13.6,2.8,18.6,7.7c4.9,4.9,7.7,11.6,7.7,18.6
		c0,7-2.8,13.6-7.7,18.6C252.7,516.4,246.1,519.2,239.1,519.2L239.1,519.2z M282,501.5c1.2-5.8,1.2-11.7,0-17.5h56.5
		c-1.2,5.8-1.2,11.7,0,17.5H282z M381.3,519.2c-7,0-13.6-2.8-18.6-7.7c-4.9-4.9-7.7-11.6-7.7-18.6c0-7,2.8-13.6,7.7-18.6
		c4.9-4.9,11.6-7.7,18.6-7.7c7,0,13.6,2.8,18.6,7.7c4.9,4.9,7.7,11.6,7.7,18.6c0,7-2.8,13.6-7.7,18.6
		C394.9,516.4,388.2,519.2,381.3,519.2L381.3,519.2z M422.8,479.9c-1.9-6.1-5.1-11.7-9.4-16.4l47.6-28.8c2.9,5.2,6.9,9.8,11.6,13.4
		L422.8,479.9z M499,439.7c-7,0-13.6-2.8-18.6-7.7c-4.9-4.9-7.7-11.6-7.7-18.6s2.8-13.6,7.7-18.6c4.9-4.9,11.6-7.7,18.6-7.7
		c7,0,13.6,2.8,18.6,7.7c4.9,4.9,7.7,11.6,7.7,18.6c0,7-2.8,13.6-7.7,18.6C512.6,436.9,506,439.7,499,439.7L499,439.7z M556.9,309
		c-2.2-0.8-4.6-0.7-6.7,0.3c-2.1,1-3.7,2.8-4.5,4.9l-22.8,62.7h0c-4.9-3.2-10.5-5.4-16.3-6.4l22.7-62.2c0.8-2.2,0.7-4.6-0.3-6.7
		s-2.8-3.7-4.9-4.5l-31.3-11l64.9-30.5l30.6,64.9L556.9,309z M341.9,279.6c-9.3,0-18.4-2.6-26.2-7.5c-4.1-2.6-5.3-8-2.8-12.1
		c2.6-4.1,8-5.3,12.1-2.8c5.1,3.1,11,4.7,17,4.7s11.8-1.6,17-4.7c2-1.2,4.3-1.6,6.6-1.1c2.3,0.5,4.2,1.9,5.5,3.9
		c1.2,2,1.6,4.3,1.1,6.6c-0.5,2.3-1.9,4.2-3.9,5.5C360.3,277,351.2,279.6,341.9,279.6L341.9,279.6z"/>
</g>
</svg>
