<?xml version="1.0" encoding="utf-8"?>
<!-- Generator: Adobe Illustrator 25.0.0, SVG Export Plug-In . SVG Version: 6.00 Build 0)  -->
<svg version="1.1" id="Layer_1" xmlns="http://www.w3.org/2000/svg" xmlns:xlink="http://www.w3.org/1999/xlink" x="0px" y="0px"
	 viewBox="0 0 700 700" style="enable-background:new 0 0 700 700;" xml:space="preserve">
<style type="text/css">
	.st0{fill-rule:evenodd;clip-rule:evenodd;}
</style>
<path class="st0" d="M148.2,64l-52.5,48.7C47.8,156,108.2,305.3,241.2,452.1C373.9,598.4,515.7,672.4,562,628.8l52-48.3
	c13.1-12.2,5.8-37.9-27.1-68c-31.6-28.9-67.1-39.8-72-35.2l-35.3,33.5c-47.1,45-116.3-3.8-199.5-95.3
	c-82.8-91-125.2-164.4-78.5-206.5l36.2-34.3c1.2-1.1,2.5-7.6-0.1-20.5c-3.4-17.7-13.3-38.8-26.9-57.2
	C184.5,61.6,160.8,52.3,148.2,64L148.2,64z M119.9,33.5C199-40,323.8,153.2,265.6,205.7l-35.4,33.6
	C190.6,275,411.3,518.6,450.8,480.8l35.4-33.6c56.2-52.5,235.2,90.3,156.1,163.8l-52,48.3C434.2,806.3-92.5,226.7,67.8,81.8
	L119.9,33.5z"/>
</svg>
