<?xml version="1.0" encoding="utf-8"?>
<!-- Generator: Adobe Illustrator 25.0.0, SVG Export Plug-In . SVG Version: 6.00 Build 0)  -->
<svg version="1.1" id="Layer_1" xmlns="http://www.w3.org/2000/svg" xmlns:xlink="http://www.w3.org/1999/xlink" x="0px" y="0px"
	 viewBox="0 0 700 700" style="enable-background:new 0 0 700 700;" xml:space="preserve">
<g>
	<path d="M197,193c28.2,0,52.2-24.6,52.2-54.4S226,84.3,197,84.3s-52.2,24.6-52.2,54.4S168,193,197,193z M197,94.4
		c23.2,0,42.1,19.6,42.1,44.3s-18.9,44.3-42.1,44.3s-42.1-19.6-42.1-44.3S173.8,94.4,197,94.4L197,94.4z"/>
	<path d="M289.2,276.5c5.1-3.6,8-9.5,7.3-15.9c-5.8-47.9-66.7-62.4-73.3-63.9c-1.4,0-2.8,0-4.4,0.8l-21,16.6l-21-16.7
		c-1.4-0.8-2.8-1.4-4.4-0.8c-7.3,1.4-67.5,16.7-73.3,63.9c-0.8,6.5,2.2,12.3,7.3,15.9c11.7,8,39.1,22.5,91.4,22.5
		C249.4,298.9,276.8,285.1,289.2,276.5L289.2,276.5z M196.4,288.8c-50.8,0-76.2-14.5-84.8-20.3c-2.2-1.4-2.8-3.6-2.8-6.5
		c4.4-37.7,51.5-52.2,63.1-55.2l21.8,17.4c2.2,1.4,4.4,1.4,6.5,0l21.8-17.4c12.3,2.8,58.8,17.4,63.1,55.2c0,2.8-0.8,5.1-2.8,6.5
		c-8.7,5.8-34.1,20.3-84.8,20.3H196.4L196.4,288.8z"/>
	<path d="M525.6,372.8c22.5,0,39.9-18.9,39.9-42.1c0-23.2-18.1-42.1-39.9-42.1c-22.5,0-39.9,18.9-39.9,42.1
		C485.7,353.9,503.8,372.8,525.6,372.8z M525.6,299.6c16.7,0,30.4,14.5,30.4,31.9s-13.7,31.9-30.4,31.9c-16.7,0-30.4-14.5-30.4-31.9
		C495.9,313.4,509.7,299.6,525.6,299.6L525.6,299.6z"/>
	<path d="M595.3,434.5c4.4-2.8,6.5-8,5.8-13.1c-4.4-36.3-50.8-47.9-55.8-49.3c-1.4,0-2.8,0-4.4,0.8l-14.5,11.7l-14.5-11.7
		c-1.4-0.8-2.8-0.8-4.4-0.8c-5.1,1.4-51.5,12.3-55.8,49.3c-0.8,5.1,1.4,10.1,5.8,13.1c8.7,6.5,29.8,16.7,68.9,16.7
		C565.5,451.9,586.6,441.1,595.3,434.5L595.3,434.5z M525.6,441.7c-37.7,0-56.6-10.9-63.1-15.3c-1.4-0.8-2.2-2.2-1.4-3.6
		c3.6-26.8,36.3-37.7,45.7-39.9l15.9,12.3c2.2,1.4,4.4,1.4,6.5,0l15.9-12.3c9.5,2.8,42.7,13.1,45.7,39.9c0,1.4-0.8,2.8-1.4,3.6
		c-6.5,4.4-25.4,15.3-63.1,15.3H525.6C526.4,441.7,525.6,441.7,525.6,441.7L525.6,441.7z"/>
	<path d="M231.9,532.4c22.5,0,39.9-18.9,39.9-42.1s-18.1-42.1-39.9-42.1S192,467.1,192,490.4C192,513.6,209.5,532.4,231.9,532.4z
		 M231.9,459.2c16.7,0,30.4,14.5,30.4,31.9s-13.7,31.9-30.4,31.9s-30.4-14.5-30.4-31.9S215.2,459.2,231.9,459.2z"/>
	<path d="M251.4,531.7c-1.4,0-2.8,0-4.4,0.8l-14.5,11.7L218,532.5c-2.2-0.8-3.6-0.8-5.1-0.8c-5.1,1.4-51.5,12.3-55.8,49.3
		c-0.8,5.1,1.4,10.1,5.8,13.1c8.7,6.5,29.8,16.7,68.9,16.7s60.2-10.9,68.9-16.7c4.4-2.8,6.5-8,5.8-13.1
		C303,544.8,256.6,533.1,251.4,531.7L251.4,531.7z M295.7,586.1c-6.5,4.4-25.4,15.3-63.1,15.3h-0.8h-0.8
		c-37.7,0-56.6-10.9-63.1-15.3c-1.4-0.8-2.2-2.2-1.4-3.6c3.6-26.8,36.3-37.7,45.7-39.9l15.9,12.3c2.2,1.4,4.4,1.4,6.5,0l15.9-12.3
		c9.5,2.8,42.7,13.1,45.7,39.9C297.9,583.9,297.1,585.3,295.7,586.1L295.7,586.1z"/>
	<path d="M674.3,578.1c-6.5-24.6-30.4-39.9-55.8-37l-20.3-51.5c37.7-24.6,60.2-66.1,60.2-111.6c0-73.3-60.2-133.4-133.4-133.4
		c-44.9,0-87,22.5-111.6,60.9l-7.3,13.1l-60.2-32.6l7.3-13.1c11.7-24,17.4-49.3,17.4-76.2c0-18.1-2.8-36.3-8.7-53.6l-4.4-13.1
		l61.6-16.7c8,30.4,38.5,40.7,57.2,37.7c13.7-2.2,25.4-9.5,33.4-20.3c8-10.9,11.7-24.6,9.5-37.7c-2.2-13.7-9.5-25.4-20.3-33.4
		c-10.9-8-25.4-10.9-38.5-8.7c-25.4,4.4-44.3,26.8-42.7,53l-64.5,16.7c-29-58.8-89.9-96.5-155.9-96.5
		c-95.7,0-173.3,77.6-173.3,173.3C23.7,293,101.3,370.7,197,370.7l5.1,42.1c-60.2,13.7-103,68.1-103,129.8
		c0,73.3,60.2,133.4,133.4,133.4s133.4-60.2,133.4-133.4c0-18.1-3.6-35.5-10.1-51.5l62.4-34.8c25.4,34.8,65.3,55.2,108,55.2
		c17.4,0,34.8-3.6,50.8-10.1l13.1-6.5l18.9,48.6c-11.7,3.6-20.3,10.9-26.8,20.3c-7.3,12.3-9.5,28.2-6.5,41.3
		c3.6,13.1,12.3,24,24,30.4c8,4.4,16.7,6.5,25.4,6.5c4.4,0,9.5-0.8,13.7-2.2c13.1-3.6,24-12.3,30.4-24
		C676.5,604.9,677.9,591.2,674.3,578.1L674.3,578.1z M461.8,60.9c10.9-1.4,21.8,0.8,30.4,7.3c8.7,6.5,14.5,15.9,15.9,26.8
		c1.4,10.9-0.8,21.8-7.3,30.4c-6.5,8.7-15.9,14.5-26.8,15.9c-15.9,2.2-42.1-7.3-47.1-34.8C424.8,84.9,440,64.6,461.8,60.9
		L461.8,60.9z M33.8,197.3c0-89.9,73.3-163.2,163.2-163.2c63.1,0,121.1,37,147.9,95.1l7.3,18.1c5.1,15.9,8,33.4,8,50
		c0,24.6-5.8,49.3-16.7,71.1l-9.5,17.4c-26.2,39.9-67.5,66.7-113.8,73.3l-19.6,1.4h-1.4H197C107.2,361.3,33.8,288,33.8,197.3
		L33.8,197.3z M355.9,543.2c0,68.1-55.2,123.3-123.3,123.3s-123.3-55.2-123.3-123.3c0-58.8,42.1-109.6,99.3-121.1l19.6-2.2h4.4
		c41.3,0,79,20.3,102.3,54.4l9.5,17.4C351.5,507.8,355.9,525.1,355.9,543.2L355.9,543.2z M350.9,482.4l-7.3-13.1
		c-24.6-37-66.1-59.4-111-59.4h-5.1h-0.8l-15.3,1.4l-5.1-41.3l15.3-1.4c47.9-7.3,90.7-34.1,118.2-74l60.9,33.4
		c-6.5,15.9-9.5,32.6-9.5,50c0,19.6,4.4,38.5,12.3,55.8l7.3,13.1L350.9,482.4z M423.4,446.9l-10.1-16.7
		c-7.3-15.9-11.7-33.4-11.7-51.5c0-17.4,3.6-34.1,10.9-50l9.5-17.4c23.2-35.5,61.6-56.6,103.7-56.6c68.1,0,123.3,55.2,123.3,123.3
		c0,43.5-21.8,82.6-58.8,105.2l-17.4,8.7c-15.3,6.5-30.4,9.5-47.1,9.5C484.3,501.9,446.6,481.6,423.4,446.9L423.4,446.9z
		 M661.2,612.1c-5.1,9.5-14.5,16.7-24.6,19.6c-10.9,2.8-21.8,1.4-31.2-3.6s-16.7-14.5-19.6-24.6c-2.2-8-2.2-21.8,5.1-33.4
		c5.8-9.5,14.5-15.3,26.2-17.4c21-4.4,42.1,8,47.9,29C667.8,591.9,666.4,602.8,661.2,612.1L661.2,612.1z"/>
</g>
</svg>
