<?xml version="1.0" encoding="utf-8"?>
<!-- Generator: Adobe Illustrator 25.0.0, SVG Export Plug-In . SVG Version: 6.00 Build 0)  -->
<svg version="1.1" id="Layer_1" xmlns="http://www.w3.org/2000/svg" xmlns:xlink="http://www.w3.org/1999/xlink" x="0px" y="0px"
	 viewBox="0 0 700 700" style="enable-background:new 0 0 700 700;" xml:space="preserve">
<g>
	<path d="M433.6,142c-26.6-10.7-54.7-16.1-83.6-16.1c-112.9,0-208.6,84.4-222.4,196.3c-1.1,9.2-1.7,18.5-1.7,27.9
		c0,123.6,100.6,224.1,224.2,224.1c44.7,0,86.3-13.2,121.3-35.8c1.3-0.4,2.4-1.1,3.3-2.1c60-40.3,99.6-108.7,99.6-186.2
		C574.2,258,519,176.3,433.6,142L433.6,142z M350,557.4c-40.5,0-78.3-11.7-110.3-31.9c0.1-0.6,0.2-1.2,0.2-1.8
		c0-6,0.6-17.9,1.5-22.9c10.2-56.7,72.5-65.2,108.7-65.2c30.6,0,102.5,7,109.6,71.5c0.1,1.3,0.3,8.7,0.4,18.6
		C428.1,545.7,390.4,557.4,350,557.4L350,557.4z M476.6,514.1c-0.1-4.2-0.2-7.6-0.3-8.8c-5.9-54.2-53.1-86.5-126.3-86.5
		c-71.5,0-116,28.1-125.2,79c-0.7,4.1-1.2,10.6-1.5,16.3c-49-38-80.7-97.3-80.7-164c0-8.6,0.5-17.3,1.6-25.8
		C157,220.7,245.5,142.6,350,142.6c26.8,0,52.8,5,77.4,14.9c79,31.8,130,107.3,130,192.5C557.4,416.7,525.7,476.1,476.6,514.1
		L476.6,514.1z M350,235c-41.2,0-70,30.7-70,74.8c0,46.5,31.4,84.3,70,84.3c38.6,0,70-37.8,70-84.3C420,265.8,391.2,235,350,235z
		 M350,377.3c-29.4,0-53.2-30.3-53.2-67.5c0-34.7,21.4-58,53.2-58c31.8,0,53.2,23.3,53.2,58C403.2,347,379.4,377.3,350,377.3z"/>
</g>
</svg>
