<?xml version="1.0" encoding="utf-8"?>
<!-- Generator: Adobe Illustrator 25.0.0, SVG Export Plug-In . SVG Version: 6.00 Build 0)  -->
<svg version="1.1" id="Layer_1" xmlns="http://www.w3.org/2000/svg" xmlns:xlink="http://www.w3.org/1999/xlink" x="0px" y="0px"
	 viewBox="0 0 700 700" style="enable-background:new 0 0 700 700;" xml:space="preserve">
<g>
	<path class="st0" d="M446.6,290.1c59.4,0,94.6-58.2,94.6-114.2c0-57.7-37.5-94.6-94.6-94.6c-57.1,0-94.6,37-94.6,94.6
		C352,231.8,387.2,290.1,446.6,290.1L446.6,290.1z M446.6,103.6c45.4,0,72.2,26.9,72.2,72.2s-26.9,91.8-72.2,91.8
		s-72.2-46.5-72.2-91.8C374.4,130.5,401.2,103.6,446.6,103.6z"/>
	<path class="st0" d="M619.1,343.8c0-47.6-36.4-87.4-83.4-91.3l-6.2-0.6h-0.6l-3.4,5.6c-19,29.1-47,45.4-79.5,45.4
		c-32.5,0-60.5-16.2-79.5-45.4l-3.4-5.6h-0.6l-6.2,0.6c-47,4.5-83.4,44.2-83.4,91.3c0,0,0,0.6-0.6,0.6l-174.2,0
		c-10.1,0-18.5,8.4-18.5,18.5v238.6c0,9.5,7.8,17.4,17.9,17.4h407.1c9.5,0,17.9-7.8,17.9-17.9V459.2c0-10.1,8.4-18.5,18.5-18.5h60.5
		c10.1,0,18.5-8.4,18.5-18.5l0-78.4L619.1,343.8z M481.9,596.4H120.1c-10.1,0-17.9-7.8-17.9-17.9V385.3c0-10.1,8.4-18.5,18.5-18.5
		h360.6c10.1,0,18.5,8.4,18.5,18.5v193.2C499.8,588.6,492,596.4,481.9,596.4L481.9,596.4z M578.8,418.9h-38.1
		c-10.1,0-18.5-8.4-18.5-18.5v-37.5c0-10.1-8.4-18.5-18.5-18.5H296.5v-1.1c0-33.6,23.5-61.6,56-67.8h0.6c23,31.9,56,49.3,94.1,49.3
		s70.6-17.4,94.1-49.3h0.6c32.5,6.2,56,34.2,56,67.8l0,57.1C596.7,410.5,588.8,418.9,578.8,418.9L578.8,418.9z"/>
	<path class="st0" d="M224.8,400.4h-71.7c-9.5,0-17.4,7.8-17.4,17.4v71.7c0,9.5,7.8,17.4,17.4,17.4h71.7c9.5,0,17.4-7.8,17.4-17.4
		v-71.7C242.2,408.2,234.4,400.4,224.8,400.4z M202.4,484.4h-26.9c-9.5,0-17.4-7.8-17.4-17.4v-26.9c0-9.5,7.8-17.4,17.4-17.4h26.9
		c9.5,0,17.4,7.8,17.4,17.4V467C219.8,476.6,212,484.4,202.4,484.4z"/>
	<path class="st0" d="M442.7,539.3H145.9c-6.2,0-11.2,5-11.2,11.2s5,11.2,11.2,11.2h296.8c6.2,0,11.2-5,11.2-11.2
		C453.9,543.8,448.8,539.3,442.7,539.3z"/>
	<path class="st0" d="M442.7,483.3H283.1c-6.2,0-11.2,5-11.2,11.2s5,11.2,11.2,11.2h159.6c6.2,0,11.2-5,11.2-11.2
		C453.9,487.8,448.8,483.3,442.7,483.3z"/>
	<path class="st0" d="M127.4,263.8c6.2,1.1,11.8-2.8,13.4-8.4l2.2-11.8c1.1-5,5.6-9,11.2-9H166c7.3,0,12.3,6.7,11.2,13.4l-0.6,2.2
		c-1.1,6.2,2.8,11.8,8.4,13.4c6.2,1.1,11.8-2.8,13.4-8.4l2.2-11.8c1.1-5,5.6-9,11.2-9h11.2c6.2,0,11.2-5,11.2-11.2
		s-5-11.2-11.2-11.2h-1.7c-7.3,0-12.3-6.7-11.2-13.4l2.8-12.9c1.1-5,5.6-9,11.2-9h11.2c6.2,0,11.2-5,11.2-11.2
		c0-6.2-5-11.2-11.2-11.2h-1.7c-7.3,0-12.3-6.7-11.2-13.4l0.6-2.2c1.1-6.2-2.8-11.8-8.4-13.4c-6.2-1.1-11.8,2.8-13.4,8.4l-2.2,11.8
		c-1.1,5-5.6,9-11.2,9H175c-7.3,0-12.3-6.7-11.2-13.4l0.6-2.2c1.1-6.2-2.8-11.8-8.4-13.4c-6.2-1.1-11.8,2.8-13.4,8.4l-2.2,11.8
		c-1.1,5-5.6,9-11.2,9h-11.2c-6.2,0-11.2,5-11.2,11.2c0,6.2,5,11.2,11.2,11.2h1.7c7.3,0,12.3,6.7,11.2,13.4l-2.8,12.9
		c-1.1,5-5.6,9-11.2,9h-11.2c-6.2,0-11.2,5-11.2,11.2s5,11.2,11.2,11.2h1.7c7.3,0,12.3,6.7,11.2,13.4l-0.6,2.2
		C117.3,256.5,121.2,262.6,127.4,263.8L127.4,263.8z M166,177h11.8c7.3,0,12.3,6.7,11.2,13.4l-2.8,12.9c-1.1,5-5.6,9-11.2,9h-11.8
		c-7.3,0-12.3-6.7-11.2-13.4l2.8-12.9C156,180.9,160.4,177,166,177z"/>
</g>
</svg>
