<?xml version="1.0" encoding="utf-8"?>
<!-- Generator: Adobe Illustrator 25.0.0, SVG Export Plug-In . SVG Version: 6.00 Build 0)  -->
<svg version="1.1" id="Layer_1" xmlns="http://www.w3.org/2000/svg" xmlns:xlink="http://www.w3.org/1999/xlink" x="0px" y="0px"
	 viewBox="0 0 700 700" style="enable-background:new 0 0 700 700;" xml:space="preserve">
<g>
	<path d="M247.5,437.7c0,5.1,4.2,9.3,9.3,9.3h12c5.1,0,9.3-4.2,9.3-9.3s-4.2-9.3-9.3-9.3h-12C251.7,428.3,247.5,432.5,247.5,437.7z"
		/>
	<path d="M312.8,428.3c-5.1,0-9.3,4.2-9.3,9.3s4.2,9.3,9.3,9.3h12c5.1,0,9.3-4.2,9.3-9.3s-4.2-9.3-9.3-9.3H312.8z"/>
	<path d="M375.1,428.3c-5.1,0-9.3,4.2-9.3,9.3s4.2,9.3,9.3,9.3h12c5.1,0,9.3-4.2,9.3-9.3s-4.2-9.3-9.3-9.3H375.1z"/>
	<path d="M421.9,437.7c0,5.1,4.2,9.3,9.3,9.3h12c5.1,0,9.3-4.2,9.3-9.3s-4.2-9.3-9.3-9.3l-12,0C426,428.3,421.9,432.5,421.9,437.7z"
		/>
	<path d="M506.9,473c0,11.3-9.2,20.6-20.6,20.6c-5.1,0-9.3,4.2-9.3,9.3s4.2,9.3,9.3,9.3c21.7,0,39.3-17.6,39.3-39.3v-33
		c0-23.4,9.1-45.5,25.7-62.1c1.9-1.9,2.8-4.4,2.7-7c-0.1-2.6-1.4-5.1-3.4-6.8c-16.5-13.6-25.9-33.7-25.9-55.1v-42.3
		c0-20.8-16.9-37.8-37.8-37.8c-5.1,0-9.3,4.2-9.3,9.3c0,5.1,4.2,9.3,9.3,9.3c10.5,0,19.1,8.6,19.1,19.1V309
		c0,23.7,9.2,46.1,25.5,62.9c-16,19.1-24.6,42.9-24.6,68.1L506.9,473z"/>
	<path d="M193.9,266.7c0-10.5,8.6-19.1,19.1-19.1c5.1,0,9.3-4.2,9.3-9.3c0-5.1-4.2-9.3-9.3-9.3c-20.8,0-37.8,16.9-37.8,37.8V309
		c0,21.4-9.4,41.5-25.9,55.1c-2,1.7-3.3,4.1-3.4,6.8c-0.1,2.6,0.9,5.2,2.7,7c16.6,16.6,25.7,38.6,25.7,62.1v33
		c0,21.7,17.6,39.3,39.3,39.3c5.1,0,9.3-4.2,9.3-9.3s-4.2-9.3-9.3-9.3c-11.3,0-20.6-9.2-20.6-20.6v-33c0-25.2-8.7-49-24.6-68.1
		c16.3-16.8,25.5-39.2,25.5-62.9L193.9,266.7z"/>
	<path d="M428.7,187.7H295.9c-2.3,0-4.5,0.8-6.2,2.4l-28.2,25.3c-2,1.8-3.1,4.3-3.1,7V365c0,5.1,4.2,9.3,9.3,9.3h160.9
		c5.1,0,9.3-4.2,9.3-9.3L438,197c0-2.5-1-4.9-2.7-6.6C433.5,188.6,431.2,187.7,428.7,187.7L428.7,187.7z M299.3,206.4v20.1H277v0
		L299.3,206.4z M419.2,355.7H277V245.2h31.7c5.1,0,9.3-4.2,9.3-9.3v-29.5h101.3L419.2,355.7z"/>
	<path d="M348.2,325.7c5.1,0,9.3-4.2,9.3-9.3v-34.7c0-5.1-4.2-9.3-9.3-9.3s-9.3,4.2-9.3,9.3v34.7C338.8,321.5,343,325.7,348.2,325.7
		z"/>
	<path d="M348.2,261.2c5.1,0,9.3-4.2,9.3-9.3v-6.2c0-5.1-4.2-9.3-9.3-9.3s-9.3,4.2-9.3,9.3v6.2C338.8,257.1,343,261.2,348.2,261.2z"
		/>
</g>
</svg>
