<?xml version="1.0" encoding="utf-8"?>
<!-- Generator: Adobe Illustrator 25.0.0, SVG Export Plug-In . SVG Version: 6.00 Build 0)  -->
<svg version="1.1" id="Layer_1" xmlns="http://www.w3.org/2000/svg" xmlns:xlink="http://www.w3.org/1999/xlink" x="0px" y="0px"
	 viewBox="0 0 700 700" style="enable-background:new 0 0 700 700;" xml:space="preserve">
<g>
	<path d="M363.4,157.8v32.8V258v56.1c0,3.1-0.2,6.2,0,9.3c0.1,1.5,0.3-0.6,0,0.8c-0.1,0.5-0.3,0.9-0.4,1.4c0.4-1.3,0.2-0.3,0,0
		c-0.2,0.4-0.5,0.8-0.7,1.2c0.7-1.1,0.3-0.3,0,0c-0.3,0.3-0.7,0.7-1,1c-1,1,0.4-0.2-0.3,0.2c-0.4,0.2-0.8,0.5-1.3,0.7
		c-1.1,0.5,1.1-0.3-0.1,0c-0.6,0.1-2.5,0.3-1.1,0.3c-0.4,0-0.8,0-1.1,0c-2.6,0-5.1,0-7.7,0h-58h-1.4c-4.4,0-8.2,3.8-8.2,8.2v49.7
		v5.1c0,1.2-0.6,3.2,0.1,0.4c0.7-1.2,1.4-2.4,2.1-3.6c-0.1,0.1-0.3,0.3-0.4,0.4c1.2-0.7,2.4-1.4,3.6-2.1c0.4,0,0.7-0.1,1.1-0.1
		c1.4,0.4,2.8,0.7,4.1,1.1c2.4,1.6,0.6,0.4-0.1-0.2c-1.1-1-2.2-2-3.3-3c-3.9-3.6-7.8-7.1-11.8-10.7c-10.1-9.2-20.2-18.4-30.3-27.6
		c-5.6-5.1-11-10.3-16.8-15.2c-3.3-2.9-6.9-2.4-10.9-2.4h-15h-40.9c-8.1,0-16.3-0.4-24.3,0c0,0-0.1,0-0.1,0c-0.3,0-1.7-0.1-0.1,0.1
		c-0.6-0.1-1.2-0.3-1.8-0.4c-1.2-0.3,1.5,1-0.4-0.1c-0.4-0.2-0.8-0.5-1.2-0.7c1.3,0.8,0.1,0.1-0.3-0.3c-0.3-0.3-1.6-2.2-0.8-0.8
		c-0.3-0.5-1.2-2.7-0.7-1.3c-0.2-0.7-0.4-1.4-0.5-2.1c0.1,0.4,0.1,1.4,0.1-0.1c0-0.1,0-0.2,0-0.2c0-1.7,0-3.4,0-5.1v-26.2v-81.5
		c0-17.4-0.1-34.7,0-52.1c0-0.1,0-0.3,0-0.4v-0.1c0,0,0-0.7,0-0.8c0,1.7,0.2-0.6,0.3-1.1c0.3-1.2-1,1.5,0.1-0.4
		c0.2-0.4,0.5-0.8,0.7-1.2c-0.8,1.3-0.1,0.1,0.3-0.3c0.4-0.4,0.8-0.9,1.3-1.2c-1.6,1.2,2-0.8,1.1-0.5c-1.1,0.4,1.2-0.3,1.1-0.2
		c1.9-0.5-1.2-0.1,0.8,0c0.9,0,1.8,0,2.6,0h19H234h81c14.1,0,28.2-0.1,42.3,0c0.1,0,0.2,0,0.3,0h0c2.3-0.1-0.8-0.3,0.4,0
		c0.6,0.1,1.2,0.3,1.8,0.5c-1.8-0.5,1.8,1,1,0.5c-0.9-0.6,0.8,0.7,0.8,0.7c0.3,0.3,0.7,0.7,1,1.1c-1-1.3,0,0.1,0.1,0.4
		c0.2,0.4,0.6,1.8,0.2,0.4c0.1,0.5,0.3,0.9,0.4,1.4C363.9,159.2,363.3,155.4,363.4,157.8c0.1,4.3,3.7,8.4,8.2,8.2
		c4.3-0.2,8.3-3.6,8.2-8.2c-0.3-11.8-9-20.9-20.6-22.1c-1.1-0.1-2.2-0.1-3.4-0.1h-14.5h-59h-73.3h-56.6c-4.1,0-8.3,0-12.4,0
		c-12.7,0.1-22.8,9.6-23,22.4c-0.2,13.5,0,27,0,40.4v72.1v50.1c0,0.9,0,1.9,0,2.8c0.2,10.6,7.8,20.1,18.4,21.8
		c6.4,1,13.2,0.4,19.7,0.4H220h4.6c-1.9-0.8-3.9-1.6-5.8-2.4c15.8,14.4,31.6,28.7,47.4,43.1c3.9,3.5,7.8,7,11.6,10.6
		c2,1.8,4.2,4.3,6.6,5.6c6.7,3.7,13.7-1.7,14-8.6c0.1-1.4,0-2.8,0-4.1v-17.9v-34.4l-8.2,8.2h53.7c8.1,0,17.7,1.2,24.9-3
		c6.9-4,10.8-11.4,11-19.3c0-1.3,0-2.6,0-3.9V269v-69.8c0-13.6,0.3-27.2,0-40.8c0-0.2,0-0.4,0-0.6c0-4.3-3.8-8.4-8.2-8.2
		C367.1,149.8,363.4,153.2,363.4,157.8L363.4,157.8z"/>
	<path d="M566.5,313.2v63.1v91.2v10c0,0.5,0,1,0,1.4c0,0.2-0.1,1.7,0.1,0.1c-0.1,0.5-0.2,1-0.3,1.4c-0.4,2,0.8-1-0.2,0.7
		c-0.1,0.2-1.4,2.2-0.3,0.7c-0.4,0.6-1,1-1.5,1.6c-1.3,1.3,1.1-0.3-0.6,0.4c-0.3,0.1-2.3,0.8-0.7,0.4c-0.5,0.1-3.2,0.4-1.5,0.4
		c-9.9,0.1-19.8,0-29.6,0h-48.4c-4.3,0-8.6-0.1-12.9,0c-4.4,0.1-6.7,2.5-9.5,5.3c-19.7,19.6-39.3,39.1-59,58.7
		c-0.7,0.7-2.9,2.2-0.4,0.6c1.4-0.4,2.8-0.7,4.1-1.1c0.4,0,0.7,0.1,1.1,0.1c1.2,0.7,2.4,1.4,3.6,2.1c-0.1-0.1-0.3-0.3-0.4-0.4
		c0.7,1.2,1.4,2.4,2.1,3.6c0.7,2.7,0.1,1.1,0.1-0.1v-4.5v-15v-33.2v-7.9c0-4.4-3.8-8.2-8.2-8.2h-45.9c-5.4,0-10.7-0.2-16.1,0
		c-0.1,0-1.4,0-0.4,0c1,0.1-0.5-0.1-0.7-0.2c-0.4-0.1-0.7-0.2-1.1-0.3c0.3,0.1,1.3,0.8,0,0c-0.4-0.3-1.8-1.1-0.7-0.3
		c-0.7-0.6-1.4-1.3-2-2c1,1.3-0.3-0.7-0.4-1.1c-0.5-1.1,0.3,1.1,0-0.1c-0.1-0.4-0.2-0.7-0.3-1.1c-0.4-1.4-0.1,0.7,0-0.9
		c0-0.9,0-1.9,0-2.8v-42.5v-60.3v-23.5c0-3.9,0.2-7.9,0-11.9c0-0.2,0-0.4,0-0.5l-8.2,8.2c9.4,0,18.9,0,28.3,0
		c8.8,0,17.1-4.4,20.9-12.6c2.7-5.7,2.2-11.8,2.2-17.9v-15.8l-8.2,8.2H392h48.6h57H544h13.2c1,0,2,0,3.1,0c0.2,0,0.3,0,0.5,0
		c0.1,0,0.5,0,0.4,0c1.3,0-1.2-0.3,0.1-0.1c0.4,0.1,0.7,0.2,1.1,0.2c1.4,0.2-0.4-0.5,0.7,0.2c0.3,0.2,0.6,0.4,0.9,0.5
		c1,0.5-1.1-1.2,0.3,0.2c0.5,0.5,1,1,1.5,1.6c-0.8-1.1,0,0.3,0.3,0.7c0.1,0.1,0.5,1.2,0.2,0.3c-0.3-0.9,0.1,0.5,0.2,0.8
		c0.1,0.4,0.2,0.7,0.2,1.1C566.6,312.8,566.5,311.6,566.5,313.2c0.1,4.3,3.7,8.4,8.2,8.2c4.3-0.2,8.3-3.6,8.2-8.2
		c-0.3-12.6-10.3-22.1-22.8-22.1c-3.1,0-6.2,0-9.3,0H508h-57.8h-52.2c-8.6,0-17.3-0.3-26,0c-0.1,0-0.2,0-0.4,0
		c-4.4,0-8.2,3.8-8.2,8.2c0,8-0.2,16.1,0,24.1c0,1.5,0,0.5,0.1,0.1c-0.1,0.5-0.2,1-0.3,1.4c-0.2,1.3-0.1,0.6,0.1,0.1
		c-0.2,0.4-0.5,0.8-0.7,1.3c-0.5,1.2-0.3,0.5,0.1,0.1c-0.3,0.4-0.6,0.7-1,1.1c-0.3,0.3-0.7,0.7-1.1,1c1.4-1.1-0.6,0.2-0.7,0.3
		c-0.4,0.2-1.3,0.4,0,0c-0.5,0.1-0.9,0.3-1.4,0.4c-1.5,0.4,0.7,0.1-0.8,0c-0.4,0-0.7,0-1.1,0h-14.9h-13.3c-4.4,0-8.2,3.8-8.2,8.2
		v30.5v60.8v46.1c0,7.3,0.9,14.3,6.5,19.8c6.8,6.8,15.5,6.5,24.2,6.5H403h1.3c-2.7-2.7-5.5-5.5-8.2-8.2v30.3c0,10.6-0.5,21.3,0,31.9
		c0.4,8.5,10,12.3,16.2,6.6c0.6-0.6,1.2-1.2,1.8-1.8c3.2-3.2,6.5-6.5,9.7-9.7c10.3-10.2,20.6-20.4,30.8-30.7c7-7,14.1-14,21.1-21
		c-1.9,0.8-3.9,1.6-5.8,2.4h56.3h30.3c2.7,0,5.3,0,8-0.4c10.7-1.5,18.2-11.3,18.4-21.8c0.3-13.7,0-27.4,0-41.1v-76.2
		c0-15.8,0.3-31.7,0-47.5c0-0.3,0-0.5,0-0.8c0-4.3-3.8-8.4-8.2-8.2C570.3,305.2,566.5,308.6,566.5,313.2L566.5,313.2z"/>
	<path d="M287.9,290.3V247v-27.1c0-7.4,0.2-14.3-3.1-21.2c-3.6-7.4-10.9-13.2-18.9-15.1c-4.5-1.1-9.1-0.9-13.7-0.9
		c-4.4,0-8.9,0-13.3,0c-7.3,0-13.9,2.3-19.6,6.9c-6.6,5.4-10.3,13.8-10.4,22.2c0,1.2,0,2.5,0,3.7v23.9c0,16.6-0.3,33.2,0,49.8
		c0,0.3,0,0.7,0,1c0,4.3,3.8,8.4,8.2,8.2c4.4-0.2,8.2-3.6,8.2-8.2v-40.6v-27.2v-8.3c0-0.7,0-1.3,0-2v-0.3c0-0.4,0-0.8,0-1.2
		c0-0.4,0-0.8,0.1-1.1c-0.1,1.2,0,0.3,0.2-0.4c0.2-0.7,0.4-1.4,0.6-2.1c0.4-1.2-0.6,1.1,0,0c0.2-0.3,0.3-0.6,0.5-1
		c0.4-0.7,0.9-1.4,1.3-2.1c0.5-0.8-0.1,0.1-0.2,0.2c0.3-0.4,0.6-0.7,1-1.1c0.3-0.3,0.7-0.6,1-1c0.1-0.1,1-0.8,0.3-0.3
		c-0.6,0.5,1.2-0.8,1.5-1c0.6-0.4,1.3-0.7,1.9-1c-1.5,0.7,1-0.3,1.5-0.4c0.4-0.1,0.7-0.2,1.1-0.2c1.3-0.3-1.3,0.1,0,0
		c0.6-0.1,1.3-0.1,1.9-0.1c0.4,0,0.7,0,1.1,0h5.5c4.4,0,8.8,0,13.2,0c0.3,0,0.6,0,1,0c0.5,0,1,0,1.5,0.1c1.6,0.1,0.4,0.1,0.1,0
		c0.5,0.1,1,0.2,1.4,0.3c2.5,0.6,4.5,1.8,6.2,3.6c0.4,0.4,1.4,1.6,0.6,0.5c0.5,0.7,0.9,1.4,1.4,2.1c0.3,0.5,1.1,2.4,0.5,1
		c0.3,0.9,0.6,1.9,0.8,2.8c0.4,1.5,0.1-0.8,0.1,0.8c0,0.5,0,1,0.1,1.5v0.3c0,1.8,0,3.6,0,5.5v24.5c0,15.7-0.2,31.5,0,47.2
		c0,0.3,0,0.6,0,0.9c0,4.3,3.8,8.4,8.2,8.2C284.1,298.3,287.9,294.9,287.9,290.3L287.9,290.3z"/>
	<path d="M217.1,248.8h54.8h7.8c4.3,0,8.4-3.8,8.2-8.2c-0.2-4.4-3.6-8.2-8.2-8.2h-54.7h-7.8c-4.3,0-8.4,3.8-8.2,8.2
		C209.1,245,212.5,248.8,217.1,248.8L217.1,248.8z"/>
	<path d="M395.5,363.4h35.7h56.6h13c4.3,0,8.4-3.8,8.2-8.2c-0.2-4.4-3.6-8.2-8.2-8.2h-35.7h-56.6h-13c-4.3,0-8.4,3.8-8.2,8.2
		C387.5,359.7,390.9,363.4,395.5,363.4z"/>
	<path d="M473.8,355.2c0.1,2.5,0,5-0.2,7.5c-0.1,1.3-0.3,2.6-0.4,3.8c0,0.3,0.4-2.5,0.1-0.9c-0.1,0.4-0.1,0.8-0.2,1.1
		c-0.1,0.8-0.3,1.6-0.4,2.4c-0.6,3.5-1.5,7-2.5,10.4c-0.6,1.9-1.2,3.7-1.8,5.6c-0.4,1-0.7,1.9-1.1,2.9c-0.8,1.9,0-0.2,0.1-0.2
		c-0.1,0-0.7,1.6-0.8,1.8c-1.9,4.3-4.2,8.4-6.8,12.3c-0.7,1-1.4,2-2.1,3c-0.3,0.5-0.7,0.9-1,1.4c-0.2,0.3-0.9,1.1-0.1,0.2
		c0.8-1.1-0.1,0.1-0.3,0.4c-1.7,2.1-3.4,4.1-5.3,6c-2,2-4,4-6.2,5.8c-1,0.9-2.1,1.7-3.1,2.5c1.6-1.3-0.2,0.2-0.7,0.5
		c-0.6,0.5-1.3,0.9-1.9,1.4c-3,2.1-6.1,4-9.3,5.7c-1.6,0.9-3.3,1.8-5,2.6c-0.9,0.4-1.8,0.9-2.8,1.3c-0.4,0.2-3.2,1.4-1.6,0.7
		c-8.4,3.4-17.1,5.9-25.9,7.7c-4.3,0.9-6.8,6-5.7,10.1c1.2,4.5,5.7,6.6,10.1,5.7c28.3-5.7,54.7-19.2,72.2-42.7
		c10.6-14.3,16.6-31.4,18.5-49c0.4-3.3,0.7-6.6,0.5-9.9c-0.2-4.3-3.6-8.4-8.2-8.2C477.8,347.2,473.6,350.7,473.8,355.2L473.8,355.2z
		"/>
	<path d="M414.3,386c8.5,25.1,27.1,45.8,50.3,58.4c10.3,5.5,21.3,9.6,32.6,12.5c4.2,1.1,9.1-1.3,10.1-5.7c1-4.3-1.3-9-5.7-10.1
		c-4.9-1.2-9.8-2.7-14.6-4.5c-4.3-1.6-6.5-2.5-11.1-4.8c-3.7-1.9-7.4-4-10.9-6.2c-1.5-1-3.1-2.1-4.6-3.1c-0.3-0.2-2.3-1.7-1.6-1.2
		c0.8,0.6-0.3-0.2-0.5-0.4c-0.4-0.3-0.8-0.7-1.3-1c-5.1-4.3-9.8-9-14-14.2c-1.3-1.6,0.8,1.1-0.4-0.5c-0.4-0.6-0.8-1.1-1.2-1.7
		c-0.8-1.2-1.7-2.4-2.4-3.6c-1.4-2.2-2.8-4.5-4.1-6.8c-1.2-2.3-2.1-4.8-3.4-7c0,0,0.8,2.1,0.4,0.9c-0.1-0.3-0.2-0.6-0.3-0.8
		c-0.2-0.5-0.4-1-0.6-1.5c-0.4-1-0.7-2-1.1-3c-1.4-4.2-5.6-7-10.1-5.7C416,377,412.9,381.8,414.3,386L414.3,386z"/>
	<path d="M456.3,355.2v-14.7c0-4.3-3.8-8.4-8.2-8.2c-4.4,0.2-8.2,3.6-8.2,8.2v14.7c0,4.3,3.8,8.4,8.2,8.2
		C452.6,363.2,456.3,359.8,456.3,355.2z"/>
</g>
</svg>
