<?xml version="1.0" encoding="utf-8"?>
<!-- Generator: Adobe Illustrator 25.0.0, SVG Export Plug-In . SVG Version: 6.00 Build 0)  -->
<svg version="1.1" id="Layer_1" xmlns="http://www.w3.org/2000/svg" xmlns:xlink="http://www.w3.org/1999/xlink" x="0px" y="0px"
	 viewBox="0 0 700 700" style="enable-background:new 0 0 700 700;" xml:space="preserve">
<g>
	<path d="M461.9,133.1c-47.7-28.1-130.6-28.9-178.1-11.9c-44.1,15.8-70.4,43.5-82.9,87.3c-14.7,51.5-12,62.9-6.9,72.5
		c1.4,2.7,2.3,4.4-0.1,13.8c-2.3,9.2-9,17.8-16.1,26.9c-10.6,13.6-21.6,27.8-18.7,45.8c0.3,1.9,1.3,3.7,2.9,4.9
		c3.8,2.9,9,5.4,14.5,7.9c2.5,1.1,5,2.3,7.2,3.4c0.3,4.9-1.1,7.7-2.6,10.8c-4.1,8.4-4.9,15,2.7,25.3c-5.9,8-3.1,14.4,1.2,20
		c1.7,2.2,3.1,4.2,3.6,7c0.5,3.1-0.1,6.5-0.8,10.5c-1,5.8-2.3,12.9-0.5,21.5c5.1,25,37.6,21.9,59.1,19.8c1.9-0.2,3.8-0.4,5.5-0.5
		c23.7-2.1,28.6,1.4,32.6,22.9c4.7,25,2.1,33.4-4.1,53.7l-1.7,5.4c0,0.1,0,0.2-0.1,0.3c-0.1,0.3-0.1,0.5-0.2,0.8
		c0,0.2-0.1,0.5-0.1,0.7c0,0.2,0,0.5,0,0.8c0,0.2,0,0.5,0.1,0.8c0,0.2,0.1,0.5,0.1,0.7c0.1,0.2,0.1,0.5,0.2,0.7
		c0.1,0.2,0.2,0.5,0.3,0.7c0.1,0.2,0.2,0.5,0.4,0.7c0.1,0.1,0.1,0.2,0.2,0.3c0.1,0.1,0.1,0.1,0.2,0.2c0.3,0.4,0.5,0.7,0.9,1
		c0.1,0.1,0.2,0.2,0.3,0.3c0.4,0.4,0.9,0.7,1.4,1c0.1,0.1,0.3,0.1,0.4,0.2c0.3,0.1,0.6,0.3,1,0.4c0.1,0,0.1,0,0.2,0
		c0.7,0.2,1.4,0.3,2.1,0.3c0.8,0,1.6-0.1,2.3-0.4c0.3-0.1,0.5-0.2,0.8-0.3c0.4-0.2,0.8-0.3,1.2-0.6c47.9-31.8,110.7-51,186.5-57.1
		c4.3-0.3,7.4-4.1,7.1-8.3c-0.1-0.8-0.3-1.5-0.5-2.1c0-0.2,0-0.3-0.1-0.5c-6.6-21.7-14.4-53.4-6.4-78.6
		c3.5-11.1,11.7-23.1,19.6-34.6c4.4-6.4,8.9-13.1,12.5-19.5C555.8,306.2,560.9,191.5,461.9,133.1L461.9,133.1z M495.8,380.3
		c-3.3,5.8-7.5,11.9-11.9,18.4c-8.5,12.5-17.3,25.4-21.5,38.6c-8.4,26.1-2.5,56.7,3.9,79.8c-65.6,6.2-121.6,22.4-166.9,48.1
		c3.5-13.5,4.5-25.4,0.4-47.1c-5.6-29.6-17.5-38.2-49.2-35.4c-1.8,0.2-3.7,0.3-5.7,0.5c-16,1.5-40.2,3.9-42.5-7.5
		c-1.2-5.7-0.3-10.5,0.6-15.7c0.9-4.9,1.8-9.9,0.9-15.5c-1-6.7-4.3-11.1-6.5-14c-0.4-0.5-0.8-1.1-1.1-1.6c0.4-0.6,1.3-1.6,2.9-3
		c1.6-1.4,2.5-3.3,2.6-5.4s-0.6-4.1-2-5.6c-7.4-8.3-6.8-9.5-4.8-13.6c2.3-4.6,5.7-11.7,3.5-23.9c-0.4-2.1-1.7-4-3.5-5.2
		c-3.5-2.2-7.8-4.2-11.9-6.1c-3.2-1.5-6.4-3-8.9-4.4c-0.1-10.1,7.4-19.7,15.9-30.6c7.8-10,15.8-20.3,18.9-32.6
		c3.6-14.1,1.7-19.2-1.3-24.8c-2.2-4.2-6-11.4,8.1-61c11-38.6,34.3-63.1,73.2-77c43.3-15.5,121.7-14.9,165,10.7
		C544.5,199.8,540.2,302.4,495.8,380.3L495.8,380.3z M500.9,248.5l-7.1-7.1c-1.5-1.5-3.4-2.3-5.5-2.3h-8.8c-2-7.4-4.9-14.5-8.8-21.2
		l6.2-6.2c1.5-1.5,2.3-3.4,2.3-5.5l0-10.1c0-2.1-0.8-4-2.3-5.5l-10.5-10.5c-1.5-1.5-3.4-2.3-5.5-2.3H451c-2.1,0-4,0.8-5.5,2.3
		l-6.2,6.2c-6.7-3.9-13.7-6.8-21.2-8.8v-8.8c0-2.1-0.8-4-2.3-5.5l-7.1-7.1c-1.5-1.5-3.4-2.3-5.5-2.3h-14.8c-2.1,0-4,0.8-5.5,2.3
		l-7.1,7.1c-1.5,1.5-2.3,3.4-2.3,5.5v8.8c-7.4,2-14.5,4.9-21.2,8.8l-6.2-6.2c-1.5-1.5-3.4-2.3-5.5-2.3h-10.1c-2.1,0-4,0.8-5.5,2.3
		l-10.5,10.5c-1.5,1.5-2.3,3.4-2.3,5.5v10.1c0,2.1,0.8,4,2.3,5.5l6.2,6.2c-3.9,6.7-6.8,13.7-8.8,21.2h-8.8c-2.1,0-4,0.8-5.5,2.3
		l-7.1,7.1c-1.5,1.5-2.3,3.4-2.3,5.5v14.8c0,2.1,0.8,4,2.3,5.5l7.1,7.1c1.5,1.5,3.4,2.3,5.5,2.3h8.8c2,7.4,4.9,14.5,8.8,21.2
		l-6.2,6.2c-1.5,1.5-2.3,3.4-2.3,5.5v10.1c0,2.1,0.8,4,2.3,5.5l10.5,10.5c1.5,1.5,3.4,2.3,5.5,2.3h10.1c2.1,0,4-0.8,5.5-2.3l6.2-6.2
		c6.7,3.9,13.7,6.8,21.2,8.8v8.8c0,2.1,0.8,4,2.3,5.5l7.1,7.1c1.5,1.5,3.4,2.3,5.5,2.3h14.8c2.1,0,4-0.8,5.5-2.3l7.1-7.1
		c1.5-1.5,2.3-3.4,2.3-5.5v-8.8c7.4-2,14.5-4.9,21.2-8.8l6.2,6.2c1.5,1.5,3.4,2.3,5.5,2.3H461c2.1,0,4-0.8,5.5-2.3l10.5-10.5
		c1.5-1.5,2.3-3.4,2.3-5.5v-10.1c0-2.1-0.8-4-2.3-5.5l-6.2-6.2c3.9-6.7,6.8-13.7,8.8-21.2h8.8c2.1,0,4-0.8,5.5-2.3l7.1-7.1
		c1.5-1.5,2.3-3.4,2.3-5.5V254C503.2,252,502.4,250,500.9,248.5L500.9,248.5z M487.7,265.6l-2.6,2.6h-11.8c-3.7,0-6.9,2.7-7.6,6.3
		c-1.8,9.8-5.6,18.8-11.2,27.1c-2.1,3.1-1.7,7.2,0.9,9.9l8.3,8.3v3.7l-5.9,5.9h-3.7l-8.3-8.3c-2.6-2.6-6.8-3-9.9-0.9
		c-8.2,5.6-17.3,9.4-27.1,11.2c-3.7,0.7-6.3,3.9-6.3,7.6v11.8l-2.6,2.6h-8.4l-2.6-2.6V339c0-3.7-2.7-6.9-6.3-7.6
		c-9.7-1.8-18.8-5.6-27.1-11.2c-3.1-2.1-7.2-1.7-9.9,0.9l-8.3,8.3h-3.7l-5.9-5.9v-3.7l8.3-8.3c2.6-2.6,3-6.8,0.9-9.9
		c-5.6-8.2-9.4-17.3-11.2-27.1c-0.7-3.7-3.9-6.3-7.6-6.3h-11.8l-2.6-2.6v-8.4l2.6-2.6h11.8c3.7,0,6.9-2.7,7.6-6.3
		c1.8-9.7,5.6-18.8,11.2-27.1c2.1-3.1,1.7-7.2-0.9-9.9l-8.3-8.3v-3.7l5.9-5.9h3.7l8.3,8.3c2.6,2.6,6.8,3,9.9,0.9
		c8.2-5.6,17.3-9.4,27.1-11.2c3.7-0.7,6.3-3.9,6.3-7.6v-11.8l2.6-2.6h8.4l2.6,2.6v11.8c0,3.7,2.7,6.9,6.3,7.6
		c9.7,1.8,18.8,5.6,27.1,11.2c3.1,2.1,7.2,1.7,9.9-0.9l8.3-8.3h3.7l5.9,5.9v3.7l-8.3,8.3c-2.6,2.6-3,6.8-0.9,9.9
		c5.6,8.2,9.4,17.3,11.2,27.1c0.7,3.7,3.9,6.3,7.6,6.3h11.8l2.6,2.6L487.7,265.6z M395.8,208.6c-29.1,0-52.8,23.7-52.8,52.8
		c0,29.1,23.7,52.8,52.8,52.8c29.1,0,52.8-23.7,52.8-52.8C448.6,232.3,424.9,208.6,395.8,208.6L395.8,208.6z M395.8,298.7
		c-20.6,0-37.3-16.7-37.3-37.3c0-20.6,16.7-37.3,37.3-37.3s37.3,16.7,37.3,37.3C433.1,282,416.4,298.7,395.8,298.7L395.8,298.7z"/>
</g>
</svg>
