<?xml version="1.0" encoding="utf-8"?>
<!-- Generator: Adobe Illustrator 25.0.0, SVG Export Plug-In . SVG Version: 6.00 Build 0)  -->
<svg version="1.1" id="Layer_1" xmlns="http://www.w3.org/2000/svg" xmlns:xlink="http://www.w3.org/1999/xlink" x="0px" y="0px"
	 viewBox="0 0 700 700" style="enable-background:new 0 0 700 700;" xml:space="preserve">
<g>
	<path d="M349.8,98.4c-78.9-0.5-151.5,52.1-172.9,131.6c-4.9,18.1-6,35.8-5.9,52.5c0.3,60.2,32.4,111.4,67.9,160.5
		c35.5,49,74.8,96.8,95.6,148.2c1.7,4.2,5,7.5,9.1,9.2c4.1,1.7,8.8,1.7,12.9,0c4.1-1.7,7.4-5,9.1-9.2
		c20.7-51.4,60.1-99.2,95.6-148.2c35.5-49,67.6-100.2,67.9-160.5c0.1-16.7-1.1-34.4-5.9-52.5c-21.4-79.6-94-132.1-172.9-131.6H349.8
		L349.8,98.4z M349.8,132h0.4c63.9-0.5,122.9,41.9,140.4,106.8c3.8,14.1,5,28.7,4.9,43.6c-0.2,48.1-27.1,93.3-61.6,141.1
		c-28,38.7-60,78.6-83.8,123.4c-23.8-44.7-55.8-84.7-83.8-123.4c-34.5-47.7-61.4-92.9-61.6-141.1c-0.1-14.9,1.1-29.5,4.9-43.6
		C226.9,173.8,285.9,131.4,349.8,132L349.8,132z M349.5,191.3c-46.6-0.1-83.7,38-83.7,84.5c0.1,46.5,37.3,84.6,83.8,84.7
		c46.6,0.1,84.8-38,84.7-84.5C434.3,229.5,396,191.3,349.5,191.3z M349.5,224.9c28.4,0,51.1,22.8,51.1,51.1
		c0,28.3-22.5,50.8-50.9,50.8c-28.4,0-51.1-22.6-51.1-50.9C298.5,247.5,321.1,224.8,349.5,224.9L349.5,224.9z"/>
</g>
</svg>
