<?xml version="1.0" encoding="utf-8"?>
<!-- Generator: Adobe Illustrator 25.0.0, SVG Export Plug-In . SVG Version: 6.00 Build 0)  -->
<svg version="1.1" id="Layer_1" xmlns="http://www.w3.org/2000/svg" xmlns:xlink="http://www.w3.org/1999/xlink" x="0px" y="0px"
	 viewBox="0 0 700 700" style="enable-background:new 0 0 700 700;" xml:space="preserve">
<g>
	<path d="M507.1,166.9h-21.8v-33.9c0-2.7-2.2-5-5-5c-2.7,0-5,2.2-5,5v33.9h-76.9v-33.9c0-2.7-2.2-5-5-5c-2.7,0-5,2.2-5,5v33.9h-76.8
		v-33.9c0-2.7-2.2-5-5-5c-2.7,0-5,2.2-5,5v33.9h-76.9v-33.9c0-2.7-2.2-5-5-5c-2.7,0-5,2.2-5,5v33.9h-21.8
		c-25.1,0-45.5,20.4-45.5,45.5v314.2c0,25.1,20.4,45.5,45.5,45.5h314.2c25.1,0,45.5-20.4,45.5-45.5V212.4
		C552.6,187.3,532.2,166.9,507.1,166.9L507.1,166.9z M480.3,226.7c2.7,0,5-2.2,5-5v-18.6c8.3,2.2,14.4,9.7,14.4,18.6
		c0,10.7-8.7,19.4-19.4,19.4c-10.7,0-19.4-8.7-19.4-19.4c0-9,6.2-16.5,14.4-18.6v18.6C475.3,224.5,477.5,226.7,480.3,226.7
		L480.3,226.7z M393.4,226.7c2.7,0,5-2.2,5-5v-18.6c8.3,2.2,14.4,9.7,14.4,18.6c0,10.7-8.7,19.4-19.4,19.4
		c-10.7,0-19.4-8.7-19.4-19.4c0-9,6.2-16.5,14.4-18.6v18.6C388.4,224.5,390.7,226.7,393.4,226.7L393.4,226.7z M306.6,226.7
		c2.7,0,5-2.2,5-5v-18.6c8.3,2.2,14.4,9.7,14.4,18.6c0,10.7-8.7,19.4-19.4,19.4c-10.7,0-19.4-8.7-19.4-19.4c0-9,6.2-16.5,14.4-18.6
		v18.6C301.6,224.5,303.9,226.7,306.6,226.7L306.6,226.7z M219.7,226.7c2.7,0,5-2.2,5-5v-18.6c8.3,2.2,14.4,9.7,14.4,18.6
		c0,10.7-8.7,19.4-19.4,19.4c-10.7,0-19.4-8.7-19.4-19.4c0-9,6.2-16.5,14.4-18.6v18.6C214.8,224.5,217,226.7,219.7,226.7
		L219.7,226.7z M542.7,526.5c0,19.7-16,35.6-35.6,35.6H192.9c-19.7,0-35.6-16-35.6-35.6l0-249.9h385.3L542.7,526.5L542.7,526.5z
		 M542.6,212.4v54.3H157.4v-54.3h-0.1c0-19.6,16-35.6,35.6-35.6v0.1h21.8v16.1c-13.8,2.4-24.4,14.4-24.4,28.8
		c0,16.2,13.2,29.3,29.3,29.3S249,238,249,221.8c0-14.4-10.6-26.4-24.4-28.8v-16.1h76.9v16.1c-13.8,2.4-24.4,14.4-24.4,28.8
		c0,16.2,13.2,29.3,29.3,29.3s29.3-13.2,29.3-29.3c0-14.4-10.5-26.4-24.4-28.8v-16.1h76.9v16.1c-13.8,2.4-24.4,14.4-24.4,28.8
		c0,16.2,13.2,29.3,29.3,29.3s29.3-13.2,29.3-29.3c0-14.4-10.6-26.4-24.4-28.8v-16.1h76.9v16.1c-13.8,2.4-24.4,14.4-24.4,28.8
		c0,16.2,13.2,29.3,29.3,29.3s29.3-13.2,29.3-29.3c0-14.4-10.6-26.4-24.4-28.8v-16.1h21.8v-0.1C526.7,176.8,542.6,192.8,542.6,212.4
		L542.6,212.4z"/>
	<path d="M255.3,528.1h189.6c15.1,0,27.3-12.3,27.3-27.3c0-2.2-1.8-4-4-4h-19.7l0-93.4c0-14.3-10.3-26.2-23.9-28.8v-30.1
		c0-2.2-1.8-4-4-4h-2.4v-3.2c4.4-1.6,7.6-5.8,7.6-10.8c0-4.9-5.8-13.8-8.2-17.5c-1.5-2.2-5.1-2.2-6.6,0c-2.5,3.6-8.2,12.6-8.2,17.5
		c0,4.9,3.1,9.1,7.5,10.8v3.2h-2.4c-2.2,0-4,1.8-4,4v29.5h-10.4v-29.5c0-2.2-1.8-4-4-4h-2.4v-3.2c4.4-1.6,7.6-5.8,7.6-10.8
		c0-4.9-5.8-13.8-8.2-17.5c-0.7-1.1-2-1.7-3.3-1.7s-2.6,0.7-3.3,1.7c-2.5,3.6-8.2,12.6-8.2,17.5c0,4.9,3.1,9.1,7.5,10.8v3.2h-2.4
		c-2.2,0-4,1.8-4,4v29.5h-10.4v-29.5c0-2.2-1.8-4-4-4h-2.4v-3.2c4.4-1.6,7.6-5.8,7.6-10.8c0-4.9-5.8-13.8-8.2-17.5
		c-1.5-2.2-5.1-2.2-6.6,0c-2.5,3.6-8.2,12.6-8.2,17.5c0,4.9,3.1,9.1,7.5,10.8v3.2h-2.4c-2.2,0-4,1.8-4,4v29.5h-10.4v-29.5
		c0-2.2-1.8-4-4-4H325v-3.2c4.4-1.6,7.6-5.8,7.6-10.8c0-4.9-5.8-13.8-8.2-17.5c-0.7-1.1-2-1.7-3.3-1.7s-2.6,0.7-3.3,1.7
		c-2.5,3.6-8.2,12.6-8.2,17.5c0,4.9,3.1,9.1,7.5,10.8v3.2h-2.4c-2.2,0-4,1.8-4,4v29.5h-10.4v-29.5c0-2.2-1.8-4-4-4H294v-3.2
		c4.4-1.6,7.6-5.8,7.6-10.8c0-4.9-5.8-13.8-8.2-17.5c-1.5-2.2-5.1-2.2-6.6,0c-2.5,3.6-8.2,12.6-8.2,17.5c0,4.9,3.1,9.1,7.5,10.8v3.2
		h-2.4c-2.2,0-4,1.8-4,4v30.1c-13.6,2.6-23.9,14.5-23.9,28.8v93.5H232c-2.2,0-4,1.8-4,4C227.9,515.9,240.2,528.1,255.3,528.1
		L255.3,528.1z M414.2,318.8c2,3.5,3.5,6.6,3.5,7.7c0,2-1.6,3.5-3.5,3.5s-3.5-1.6-3.5-3.5C410.7,325.4,412.2,322.4,414.2,318.8
		L414.2,318.8z M416.6,348.5V374h-4.8v-25.5H416.6z M383.2,318.8c2,3.5,3.5,6.6,3.5,7.7c0,2-1.6,3.5-3.5,3.5s-3.5-1.6-3.5-3.5
		C379.6,325.4,381.1,322.4,383.2,318.8z M385.5,348.5V374h-4.8v-25.5H385.5z M352,318.8c2,3.5,3.5,6.6,3.5,7.7c0,2-1.6,3.5-3.5,3.5
		s-3.5-1.6-3.5-3.5C348.5,325.4,350,322.4,352,318.8z M354.4,348.5V374h-4.8v-25.5H354.4z M320.9,318.8c2,3.5,3.5,6.6,3.5,7.7
		c0,2-1.6,3.5-3.5,3.5s-3.5-1.6-3.5-3.5C317.5,325.4,318.9,322.4,320.9,318.8z M323.3,348.5V374h-4.8v-25.5H323.3z M289.9,318.8
		c2,3.5,3.5,6.6,3.5,7.7c0,2-1.6,3.5-3.5,3.5s-3.5-1.6-3.5-3.5C286.4,325.4,287.8,322.4,289.9,318.8z M292.2,348.5V374h-4.8v-25.5
		H292.2z M263.6,403.4c0-11.8,9.6-21.3,21.3-21.3h134.1c11.8,0,21.3,9.6,21.3,21.3v18.9c-2.9,4.3-8.2,7.1-14.1,7.1
		c-7.3,0-13.6-3.9-15.6-9.8c-3.1-9.2-10.4-15.7-18.7-17c-3.7-0.6-7.5-0.3-10.9,0.8c-10,3-17.1,12.6-17.3,23.2c0,8.4,2.3,16,4.3,22.7
		c2.1,6.8,3.8,12.8,1.8,15.5c-1.3,1.8-5.6,4-18,4c-12.4,0-16.6-2.2-18-4c-2.1-2.7-0.3-8.7,1.8-15.5c1.8-6,3.8-12.7,4.2-20.1
		c1.3-5.1,0.5-10.4-2.2-15c-3.1-5.3-8.5-9.1-15-10.7c-11.3-2.9-23.1,1.9-28.3,11.3c-0.2,0.4-0.3,0.8-0.4,1.2
		c-1.5,7.8-8.5,13.6-16.2,13.6h-0.1c-5.8-0.1-11.1-3.2-14.1-8.3L263.6,403.4L263.6,403.4z M374.2,441.4c-1.3-4.7-2.4-9.7-2.4-14.8
		c0.1-7.2,4.9-13.6,11.7-15.7c2.2-0.7,4.7-0.9,7.2-0.5c5.5,0.8,10.2,5.4,12.4,11.8c3.2,9.1,12.5,15.1,23.2,15.1
		c5.2,0,10-1.6,14.1-4.2v8.3L374.2,441.4z M440.4,449.4v3.8h-62.8c-0.3-1.2-0.7-2.5-1.1-3.8H440.4z M263.6,432.9
		c4,2.9,8.9,4.6,14.1,4.6c12,0,21.7-8.1,24.1-19.4c3.5-5.9,11.4-8.8,19-6.9c4.4,1.1,8,3.5,10,7c1.7,2.9,2.1,6,1.2,9.2
		c-0.1,0.3-0.1,0.6-0.1,0.9c-0.2,4.5-1.2,8.9-2.3,13l-66,0L263.6,432.9z M263.6,449.4h63.7c-0.4,1.3-0.7,2.6-1.1,3.8h-62.6
		L263.6,449.4z M263.6,461.2H325c0,3,0.6,5.8,2.5,8.3c3.7,5,11.3,7.2,24.4,7.2c13.2,0,20.7-2.2,24.4-7.2c1.8-2.5,2.5-5.3,2.5-8.3
		h61.6v35.6H263.7L263.6,461.2z M259.6,504.8h204.1c-1.8,8.7-9.6,15.3-18.9,15.3l-189.6,0c-9.3,0-17-6.6-18.9-15.3L259.6,504.8z"/>
</g>
</svg>
