<?xml version="1.0" encoding="utf-8"?>
<!-- Generator: Adobe Illustrator 25.0.0, SVG Export Plug-In . SVG Version: 6.00 Build 0)  -->
<svg version="1.1" id="Layer_1" xmlns="http://www.w3.org/2000/svg" xmlns:xlink="http://www.w3.org/1999/xlink" x="0px" y="0px"
	 viewBox="0 0 700 700" style="enable-background:new 0 0 700 700;" xml:space="preserve">
<g>
	<path d="M85.9,682h528.1c16.6,0,32.6-6.6,44.3-18.4c11.7-11.8,18.3-27.7,18.3-44.3V283.9c0-5.2-2.3-10.2-6.3-13.6L583,196.5V67.7
		c0-13.2-5.2-25.8-14.6-35.2c-9.3-9.3-22-14.6-35.2-14.6h-363c-13.2,0-25.8,5.2-35.2,14.6c-9.3,9.3-14.6,22-14.6,35.2v126.1
		data-90.9,76.6c-4,3.4-6.3,8.3-6.3,13.6v335.4c0,16.6,6.6,32.6,18.3,44.3C53.4,675.4,69.3,682,85.9,682L85.9,682z M614,646.5H85.9
		c-7.2,0-14.1-2.9-19.2-8c-5.1-5.1-7.9-12-7.9-19.2V317.8L261.2,461L117.5,570.9c-7.8,5.9-9.4,17-3.6,24.9c5.9,7.8,17,9.4,24.9,3.5
		l152.8-116.9l49.7,35.5c6.1,4.4,14.4,4.4,20.5,0l49.7-35.5l152.8,116.7c7.8,5.9,19,4.3,24.9-3.5c5.9-7.8,4.3-19-3.6-24.9L442.3,461
		l198.9-140.6v299v0c0,7.2-2.9,14.1-8,19.2C628.2,643.6,621.3,646.5,614,646.5L614,646.5z M631.3,283.8L583,318v-75.1L631.3,283.8z
		 M170.2,53.6h363.1c3.8,0,7.4,1.5,10,4.2c2.7,2.7,4.2,6.3,4.2,10v275.1L351.8,481.5L156.1,342.9V67.7
		C156.1,59.9,162.4,53.6,170.2,53.6L170.2,53.6z M120.5,318l-50.3-35.5l50.3-42.6V318z M350,390.3h4.5c9.8,0,17.8-8,17.8-17.8
		c0-9.8-8-17.8-17.8-17.8H350c-30,0-58.8-11.9-80.1-33.2c-21.2-21.2-33.2-50-33.2-80.1s11.9-58.8,33.2-80.1
		c21.2-21.2,50-33.2,80.1-33.2c30,0,58.8,11.9,80.1,33.2c21.2,21.2,33.2,50,33.2,80.1v30.3c-0.4,6.8-4.3,12.9-10.2,16.2
		c-6,3.3-13.2,3.3-19.1,0c-6-3.3-9.8-9.4-10.2-16.2v-30.3c0.1-22.5-9.9-43.8-27.4-57.9c-17.5-14.1-40.4-19.5-62.3-14.7
		c-21.9,4.8-40.5,19.4-50.4,39.5c-9.9,20.2-10.1,43.7-0.6,64.1c9.6,20.3,27.9,35.2,49.7,40.4c21.8,5.2,44.9,0.2,62.6-13.6
		c8,14.4,22.1,24.4,38.3,27.4c16.2,3,32.9-1.5,45.5-12.1c12.6-10.6,19.8-26.3,19.7-42.7v-30.3c0-39.4-15.7-77.3-43.6-105.2
		c-27.9-27.9-65.7-43.6-105.2-43.6s-77.3,15.7-105.2,43.6c-27.9,27.9-43.6,65.7-43.6,105.2s15.7,77.3,43.6,105.2
		C272.7,374.6,310.5,390.3,350,390.3L350,390.3z M350,279.7c-10.1,0-19.8-4-27-11.2c-7.1-7.2-11.2-16.9-11.2-27
		c0-10.1,4-19.8,11.2-27c7.2-7.1,16.9-11.2,27-11.2c10.1,0,19.8,4,27,11.2c7.1,7.2,11.2,16.9,11.2,27c0,10.1-4,19.8-11.2,27
		C369.8,275.7,360.1,279.7,350,279.7z"/>
</g>
</svg>
