<?xml version="1.0" encoding="utf-8"?>
<!-- Generator: Adobe Illustrator 25.0.0, SVG Export Plug-In . SVG Version: 6.00 Build 0)  -->
<svg version="1.1" id="Layer_1" xmlns="http://www.w3.org/2000/svg" xmlns:xlink="http://www.w3.org/1999/xlink" x="0px" y="0px"
	 viewBox="0 0 700 700" style="enable-background:new 0 0 700 700;" xml:space="preserve">
<g>
	<path d="M231.9,228.8c21.8,0,40.3-19,40.3-42s-17.9-42-40.3-42s-40.3,19-40.3,42S209.5,228.8,231.9,228.8z M231.9,152.6
		c17.9,0,32.5,15.1,32.5,34.2s-14.6,34.2-32.5,34.2s-32.5-15.1-32.5-34.2S214,152.6,231.9,152.6L231.9,152.6z"/>
	<path d="M303.1,293.2c3.9-2.8,6.2-7.3,5.6-12.3c-4.5-37-51.5-48.2-56.6-49.3c-1.1,0-2.2,0-3.4,0.6L232.5,245l-16.2-12.9
		c-1.1-0.6-2.2-1.1-3.4-0.6c-5.6,1.1-52.1,12.9-56.6,49.3c-0.6,5,1.7,9.5,5.6,12.3c9,6.2,30.2,17.4,70.6,17.4
		C272.3,310.5,293.5,299.9,303.1,293.2L303.1,293.2z M231.4,302.7c-39.2,0-58.8-11.2-65.5-15.7c-1.7-1.1-2.2-2.8-2.2-5
		c3.4-29.1,39.8-40.3,48.7-42.6l16.8,13.4c1.7,1.1,3.4,1.1,5,0l16.8-13.4c9.5,2.2,45.4,13.4,48.7,42.6c0,2.2-0.6,3.9-2.2,5
		c-6.7,4.5-26.3,15.7-65.5,15.7H231.4L231.4,302.7z"/>
	<path d="M485.6,367.6c17.4,0,30.8-14.6,30.8-32.5s-14-32.5-30.8-32.5c-17.4,0-30.8,14.6-30.8,32.5S468.8,367.6,485.6,367.6z
		 M485.6,311.1c12.9,0,23.5,11.2,23.5,24.6s-10.6,24.6-23.5,24.6s-23.5-11.2-23.5-24.6C462.7,321.7,473.3,311.1,485.6,311.1
		L485.6,311.1z"/>
	<path d="M539.4,415.2c3.4-2.2,5-6.2,4.5-10.1c-3.4-28-39.2-37-43.1-38.1c-1.1,0-2.2,0-3.4,0.6l-11.2,9l-11.2-9
		c-1.1-0.6-2.2-0.6-3.4-0.6c-3.9,1.1-39.8,9.5-43.1,38.1c-0.6,3.9,1.1,7.8,4.5,10.1c6.7,5,23,12.9,53.2,12.9
		C516.4,428.7,532.7,420.3,539.4,415.2L539.4,415.2z M485.6,420.8c-29.1,0-43.7-8.4-48.7-11.8c-1.1-0.6-1.7-1.7-1.1-2.8
		c2.8-20.7,28-29.1,35.3-30.8l12.3,9.5c1.7,1.1,3.4,1.1,5,0l12.3-9.5c7.3,2.2,33,10.1,35.3,30.8c0,1.1-0.6,2.2-1.1,2.8
		c-5,3.4-19.6,11.8-48.7,11.8H485.6C486.2,420.8,485.6,420.8,485.6,420.8L485.6,420.8z"/>
	<path d="M258.8,490.8c17.4,0,30.8-14.6,30.8-32.5s-14-32.5-30.8-32.5S228,440.4,228,458.4C228,476.3,241.5,490.8,258.8,490.8z
		 M258.8,434.3c12.9,0,23.5,11.2,23.5,24.6s-10.6,24.6-23.5,24.6c-12.9,0-23.5-11.2-23.5-24.6S245.9,434.3,258.8,434.3z"/>
	<path d="M273.9,490.3c-1.1,0-2.2,0-3.4,0.6l-11.2,9l-11.2-9c-1.7-0.6-2.8-0.6-3.9-0.6c-3.9,1.1-39.8,9.5-43.1,38.1
		c-0.6,3.9,1.1,7.8,4.5,10.1c6.7,5,23,12.9,53.2,12.9s46.5-8.4,53.2-12.9c3.4-2.2,5-6.2,4.5-10.1
		C313.7,500.4,277.9,491.4,273.9,490.3L273.9,490.3z M308.1,532.3c-5,3.4-19.6,11.8-48.7,11.8h-0.6h-0.6c-29.1,0-43.7-8.4-48.7-11.8
		c-1.1-0.6-1.7-1.7-1.1-2.8c2.8-20.7,28-29.1,35.3-30.8l12.3,9.5c1.7,1.1,3.4,1.1,5,0l12.3-9.5c7.3,2.2,33,10.1,35.3,30.8
		C309.8,530.6,309.2,531.7,308.1,532.3L308.1,532.3z"/>
	<path d="M600.4,526.1c-5-19-23.5-30.8-43.1-28.6l-15.7-39.8c29.1-19,46.5-51,46.5-86.2c0-56.6-46.5-103-103-103
		c-34.7,0-67.2,17.4-86.2,47l-5.6,10.1l-46.5-25.2l5.6-10.1c9-18.5,13.4-38.1,13.4-58.8c0-14-2.2-28-6.7-41.4l-3.4-10.1l47.6-12.9
		c6.2,23.5,29.7,31.4,44.2,29.1c10.6-1.7,19.6-7.3,25.8-15.7c6.2-8.4,9-19,7.3-29.1c-1.7-10.6-7.3-19.6-15.7-25.8
		c-8.4-6.2-19.6-8.4-29.7-6.7c-19.6,3.4-34.2,20.7-33,40.9l-49.8,12.9c-22.4-45.4-69.4-74.5-120.4-74.5
		c-73.9,0-133.8,59.9-133.8,133.8C98.1,306,158,366,231.9,366l3.9,32.5c-46.5,10.6-79.5,52.6-79.5,100.2c0,56.6,46.5,103,103,103
		s103-46.5,103-103c0-14-2.8-27.4-7.8-39.8l48.2-26.9c19.6,26.9,50.4,42.6,83.4,42.6c13.4,0,26.9-2.8,39.2-7.8l10.1-5l14.6,37.5
		c-9,2.8-15.7,8.4-20.7,15.7c-5.6,9.5-7.3,21.8-5,31.9c2.8,10.1,9.5,18.5,18.5,23.5c6.2,3.4,12.9,5,19.6,5c3.4,0,7.3-0.6,10.6-1.7
		c10.1-2.8,18.5-9.5,23.5-18.5C602.1,546.8,603.2,536.2,600.4,526.1L600.4,526.1z M436.3,126.8c8.4-1.1,16.8,0.6,23.5,5.6
		c6.7,5,11.2,12.3,12.3,20.7c1.1,8.4-0.6,16.8-5.6,23.5c-5,6.7-12.3,11.2-20.7,12.3c-12.3,1.7-32.5-5.6-36.4-26.9
		C407.8,145.3,419.5,129.6,436.3,126.8L436.3,126.8z M105.9,232.1c0-69.4,56.6-126,126-126c48.7,0,93.5,28.6,114.2,73.4l5.6,14
		c3.9,12.3,6.2,25.8,6.2,38.6c0,19-4.5,38.1-12.9,54.9l-7.3,13.4c-20.2,30.8-52.1,51.5-87.9,56.6l-15.1,1.1h-1.1h-1.7
		C162.5,358.7,105.9,302.1,105.9,232.1L105.9,232.1z M354.6,499.2c0,52.6-42.6,95.2-95.2,95.2s-95.2-42.6-95.2-95.2
		c0-45.4,32.5-84.6,76.7-93.5L256,404h3.4c31.9,0,61,15.7,79,42l7.3,13.4C351.2,471.8,354.6,485.2,354.6,499.2L354.6,499.2z
		 M350.7,452.2l-5.6-10.1c-19-28.6-51-45.9-85.7-45.9h-3.9h-0.6l-11.8,1.1l-3.9-31.9l11.8-1.1c37-5.6,70-26.3,91.3-57.1l47,25.8
		c-5,12.3-7.3,25.2-7.3,38.6c0,15.1,3.4,29.7,9.5,43.1l5.6,10.1L350.7,452.2z M406.7,424.8l-7.8-12.9c-5.6-12.3-9-25.8-9-39.8
		c0-13.4,2.8-26.3,8.4-38.6l7.3-13.4c17.9-27.4,47.6-43.7,80.1-43.7c52.6,0,95.2,42.6,95.2,95.2c0,33.6-16.8,63.8-45.4,81.2
		l-13.4,6.7c-11.8,5-23.5,7.3-36.4,7.3C453.7,467.3,424.6,451.6,406.7,424.8L406.7,424.8z M590.3,552.4c-3.9,7.3-11.2,12.9-19,15.1
		c-8.4,2.2-16.8,1.1-24.1-2.8c-7.3-3.9-12.9-11.2-15.1-19c-1.7-6.2-1.7-16.8,3.9-25.8c4.5-7.3,11.2-11.8,20.2-13.4
		c16.2-3.4,32.5,6.2,37,22.4C595.4,536.8,594.3,545.2,590.3,552.4L590.3,552.4z"/>
</g>
</svg>
